<?xml version="1.0" encoding="UTF-8" standalone="no"?>
<svg
   xmlns:dc="http://purl.org/dc/elements/1.1/"
   xmlns:cc="http://creativecommons.org/ns#"
   xmlns:rdf="http://www.w3.org/1999/02/22-rdf-syntax-ns#"
   xmlns:svg="http://www.w3.org/2000/svg"
   xmlns="http://www.w3.org/2000/svg"
   id="svg8"
   version="1.1"
   viewBox="0 0 74.645203 19.455442"
   height="19.455442mm"
   width="74.645203mm">
  <defs
     id="defs2">
    <marker
       orient="auto"
       refY="0"
       refX="0"
       id="marker2189"
       style="overflow:visible">
      <path
         id="path2187"
         d="M 0,-7.0710768 -7.0710894,0 0,7.0710589 7.0710462,0 Z"
         style="fill:#338000;fill-opacity:1;fill-rule:evenodd;stroke:#338000;stroke-width:1pt;stroke-opacity:1"
         transform="scale(0.2)" />
    </marker>
    <marker
       orient="auto"
       refY="0"
       refX="0"
       id="marker1805"
       style="overflow:visible">
      <path
         id="path1803"
         d="M 0,-7.0710768 -7.0710894,0 0,7.0710589 7.0710462,0 Z"
         style="fill:#5aa02c;fill-opacity:1;fill-rule:evenodd;stroke:#5aa02c;stroke-width:1pt;stroke-opacity:1"
         transform="matrix(0.8,0,0,0.8,-5.6,0)" />
    </marker>
    <marker
       orient="auto"
       refY="0"
       refX="0"
       id="marker1795"
       style="overflow:visible">
      <path
         id="path1793"
         d="M 0,-7.0710768 -7.0710894,0 0,7.0710589 7.0710462,0 Z"
         style="fill:#ffffff;fill-opacity:1;fill-rule:evenodd;stroke:#00ccff;stroke-width:1pt;stroke-opacity:1"
         transform="matrix(0.8,0,0,0.8,-5.6,0)" />
    </marker>
    <marker
       style="overflow:visible"
       id="marker1519"
       refX="0"
       refY="0"
       orient="auto">
      <path
         transform="matrix(-0.8,0,0,-0.8,-10,0)"
         style="fill:#5aa02c;fill-opacity:1;fill-rule:evenodd;stroke:#5aa02c;stroke-width:1pt;stroke-opacity:1"
         d="M 0,0 5,-5 -12.5,0 5,5 Z"
         id="path1517" />
    </marker>
    <marker
       style="overflow:visible"
       id="marker1491"
       refX="0"
       refY="0"
       orient="auto">
      <path
         transform="matrix(-0.8,0,0,-0.8,-10,0)"
         style="fill:#5aa02c;fill-opacity:1;fill-rule:evenodd;stroke:#5aa02c;stroke-width:1pt;stroke-opacity:1"
         d="M 0,0 5,-5 -12.5,0 5,5 Z"
         id="path1489" />
    </marker>
    <marker
       style="overflow:visible"
       id="marker1481"
       refX="0"
       refY="0"
       orient="auto">
      <path
         transform="matrix(-0.8,0,0,-0.8,-10,0)"
         style="fill:#ffffff;fill-opacity:1;fill-rule:evenodd;stroke:#00ccff;stroke-width:1pt;stroke-opacity:1"
         d="M 0,0 5,-5 -12.5,0 5,5 Z"
         id="path1479" />
    </marker>
    <marker
       orient="auto"
       refY="0"
       refX="0"
       id="marker1347"
       style="overflow:visible">
      <path
         id="path1345"
         d="M 0,0 5,-5 -12.5,0 5,5 Z"
         style="fill:#ffffff;fill-opacity:1;fill-rule:evenodd;stroke:#00ccff;stroke-width:1pt;stroke-opacity:1"
         transform="matrix(-0.8,0,0,-0.8,-10,0)" />
    </marker>
    <marker
       orient="auto"
       refY="0"
       refX="0"
       id="marker1337"
       style="overflow:visible">
      <path
         id="path1335"
         d="M 0,0 5,-5 -12.5,0 5,5 Z"
         style="fill:#5aa02c;fill-opacity:1;fill-rule:evenodd;stroke:#5aa02c;stroke-width:1pt;stroke-opacity:1"
         transform="matrix(-0.8,0,0,-0.8,-10,0)" />
    </marker>
    <marker
       style="overflow:visible"
       id="marker1221"
       refX="0"
       refY="0"
       orient="auto">
      <path
         transform="matrix(-0.8,0,0,-0.8,-10,0)"
         style="fill:#ffffff;fill-opacity:1;fill-rule:evenodd;stroke:#00ccff;stroke-width:1pt;stroke-opacity:1"
         d="M 0,0 5,-5 -12.5,0 5,5 Z"
         id="path1219" />
    </marker>
    <marker
       style="overflow:visible"
       id="marker1211"
       refX="0"
       refY="0"
       orient="auto">
      <path
         transform="matrix(-0.8,0,0,-0.8,-10,0)"
         style="fill:#5aa02c;fill-opacity:1;fill-rule:evenodd;stroke:#5aa02c;stroke-width:1pt;stroke-opacity:1"
         d="M 0,0 5,-5 -12.5,0 5,5 Z"
         id="path1209" />
    </marker>
    <marker
       orient="auto"
       refY="0"
       refX="0"
       id="marker1143"
       style="overflow:visible">
      <path
         id="path1141"
         d="M 0,0 5,-5 -12.5,0 5,5 Z"
         style="fill:#ffffff;fill-opacity:1;fill-rule:evenodd;stroke:#00ccff;stroke-width:1pt;stroke-opacity:1"
         transform="matrix(-0.8,0,0,-0.8,-10,0)" />
    </marker>
    <clipPath
       id="clip1">
      <path
         d="M 0,340.15625 H 481.89062 V 0 H 0 Z m 0,0"
         id="path2489" />
    </clipPath>
  </defs>
  <metadata
     id="metadata5">
    <rdf:RDF>
      <cc:Work
         rdf:about="">
        <dc:format>image/svg+xml</dc:format>
        <dc:type
           rdf:resource="http://purl.org/dc/dcmitype/StillImage" />
        <dc:title></dc:title>
      </cc:Work>
    </rdf:RDF>
  </metadata>
  <g
     transform="translate(-2.017067,-2.910195)"
     id="layer1">
    <g
       transform="translate(-50.835399,-13.781766)"
       id="g4596">
      <path
         id="path2494"
         d="m 52.852466,36.147404 6.485222,-9.727721 -6.485222,-9.727722 h 4.863861 l 6.485221,9.727722 -6.485221,9.727721 z m 0,0"
         style="clip-rule:nonzero;fill:#11002b;fill-opacity:1;fill-rule:nonzero;stroke:none;stroke-width:0.0571955" />
      <path
         id="path2496"
         d="m 59.337688,36.147404 6.485222,-9.727721 -6.485222,-9.727722 h 4.86386 l 12.970221,19.455443 h -4.863861 l -4.053068,-6.079718 -4.053292,6.079718 z m 0,0"
         style="clip-rule:nonzero;fill:#9955ff;fill-opacity:1;fill-rule:nonzero;stroke:none;stroke-width:0.0571955" />
      <path
         id="path2498"
         d="m 75.010178,30.472974 -2.161594,-3.2425 7.565905,-2.21e-4 v 3.242721 z m 0,0"
         style="clip-rule:nonzero;fill:#11002b;fill-opacity:1;fill-rule:nonzero;stroke:none;stroke-width:0.0571955" />
      <path
         id="path2500"
         d="m 71.767678,25.609113 -2.161815,-3.2425 10.808626,-2.2e-4 v 3.24272 z m 0,0"
         style="clip-rule:nonzero;fill:#11002b;fill-opacity:1;fill-rule:nonzero;stroke:none;stroke-width:0.0571955" />
      <g
         id="Made-for-Matrix-—-Preferred"
         fill="#000000"
         fill-rule="nonzero"
         style="fill:#11002b;fill-opacity:1;stroke:none;stroke-width:1"
         transform="matrix(0.18718264,0,0,0.18718264,81.678557,16.691961)">
        <polygon
           id="Shape"
           points="9.9240506,0 9.9240506,2.3762611 2.7601266,2.3762611 2.7601266,101.56202 9.9240506,101.56202 9.9240506,103.93828 0,103.93828 0,0 "
           style="fill:#11002b;fill-opacity:1" />
        <path
           d="m 30.392405,42.921068 v 5.030267 h 0.155063 c 1.333545,-1.913353 2.977216,-3.394658 4.868988,-4.443917 1.891772,-1.049258 4.062658,-1.573887 6.512658,-1.573887 2.356962,0 4.496835,0.462908 6.450633,1.357864 1.953797,0.894955 3.411392,2.499703 4.43481,4.814243 1.116456,-1.635608 2.605063,-3.055193 4.496835,-4.289614 1.891773,-1.234422 4.155697,-1.851632 6.729747,-1.851632 1.98481,0 3.783545,0.246884 5.489241,0.709792 1.674683,0.462908 3.132278,1.234421 4.310759,2.28368 1.209494,1.049258 2.139874,2.437982 2.822152,4.135311 0.682279,1.697329 1.023418,3.734125 1.023418,6.141246 v 24.81187 H 67.452532 V 59.030267 c 0,-1.234421 -0.06203,-2.407122 -0.155064,-3.518101 -0.09304,-1.110979 -0.372152,-2.067656 -0.806329,-2.87003 -0.434177,-0.802373 -1.05443,-1.450445 -1.922785,-1.944213 -0.837341,-0.462908 -1.98481,-0.709792 -3.411392,-0.709792 -1.426582,0 -2.605063,0.277744 -3.50443,0.833234 -0.899367,0.55549 -1.581646,1.265282 -2.077849,2.160237 -0.496202,0.894956 -0.837341,1.882493 -1.023417,3.024333 -0.155064,1.110979 -0.248101,2.252819 -0.248101,3.394658 V 80.046291 H 44.068987 v -20.8 c 0,-1.110979 -0.03101,-2.191098 -0.06202,-3.271217 -0.06202,-1.080118 -0.248101,-2.067656 -0.620253,-2.962611 -0.372152,-0.894956 -0.961393,-1.635608 -1.798734,-2.191098 -0.837342,-0.55549 -2.077848,-0.833234 -3.721519,-0.833234 -0.496203,0 -1.116456,0.09258 -1.922785,0.308605 -0.806329,0.216024 -1.550633,0.617211 -2.294937,1.203561 -0.744304,0.58635 -1.395569,1.450445 -1.922785,2.592285 -0.527215,1.110979 -0.806329,2.592284 -0.806329,4.413056 V 80.01543 H 20.685443 V 42.921068 Z"
           id="path4492"
           style="fill:#11002b;fill-opacity:1" />
        <path
           d="m 84.199367,48.383383 c 1.054431,-1.573888 2.387975,-2.839169 4.031646,-3.795846 1.643671,-0.956677 3.473417,-1.635608 5.520253,-2.036795 2.046835,-0.401187 4.093671,-0.617211 6.171519,-0.617211 1.860755,0 3.783545,0.123442 5.706325,0.401187 1.92279,0.277745 3.69051,0.771513 5.27216,1.543027 1.58164,0.771513 2.88417,1.820771 3.87658,3.178635 1.02342,1.357863 1.51962,3.178635 1.51962,5.400593 v 19.287834 c 0,1.666469 0.093,3.271217 0.27911,4.814243 0.18608,1.543027 0.52722,2.684867 1.02342,3.45638 h -10.38924 c -0.18608,-0.58635 -0.34114,-1.1727 -0.46519,-1.75905 -0.12405,-0.58635 -0.21709,-1.203561 -0.2481,-1.820772 -1.64367,1.666469 -3.56646,2.839169 -5.76836,3.518101 -2.201895,0.678932 -4.465819,1.018398 -6.760756,1.018398 -1.767721,0 -3.442405,-0.216024 -4.962025,-0.648071 -1.550633,-0.432048 -2.884177,-1.11098 -4.031646,-2.005935 -1.147468,-0.894956 -2.046835,-2.067656 -2.698101,-3.425519 -0.651266,-1.357864 -0.961392,-3.024333 -0.961392,-4.937686 0,-2.098516 0.372152,-3.826706 1.116456,-5.18457 0.744303,-1.357863 1.705696,-2.437982 2.884177,-3.271216 1.178481,-0.802374 2.512025,-1.419585 4.031645,-1.820772 1.519621,-0.401187 3.039241,-0.740653 4.589874,-0.956676 1.550633,-0.246885 3.03924,-0.432048 4.527848,-0.58635 1.488607,-0.154303 2.82215,-0.370327 3.96962,-0.648072 1.14747,-0.277744 2.07785,-0.709792 2.72911,-1.265282 0.68228,-0.555489 0.99241,-1.357863 0.93038,-2.407121 0,-1.110979 -0.18607,-1.975074 -0.52721,-2.623146 -0.37215,-0.648071 -0.83734,-1.141839 -1.42658,-1.512166 -0.58924,-0.370326 -1.30253,-0.58635 -2.07785,-0.709792 -0.80633,-0.123442 -1.64367,-0.185163 -2.54304,-0.185163 -2.015822,0 -3.597468,0.432047 -4.744937,1.296142 -1.147468,0.864095 -1.829746,2.28368 -2.015822,4.289614 H 82.524683 c 0.03101,-2.437982 0.620254,-4.413056 1.674684,-5.986943 z m 20.220253,14.350148 c -0.65127,0.216024 -1.33354,0.401187 -2.07785,0.524629 -0.7443,0.154303 -1.51962,0.277745 -2.35696,0.370327 -0.806329,0.09258 -1.643671,0.216023 -2.45,0.370326 -0.775316,0.154303 -1.51962,0.339466 -2.263924,0.58635 -0.744304,0.246885 -1.39557,0.55549 -1.953797,0.956677 -0.558228,0.401187 -0.992405,0.925816 -1.333545,1.543027 -0.341139,0.61721 -0.496202,1.419584 -0.496202,2.376261 0,0.894955 0.155063,1.666468 0.496202,2.283679 0.34114,0.617211 0.806329,1.110979 1.364557,1.481306 0.558228,0.370326 1.240507,0.61721 2.015823,0.740653 0.775316,0.154302 1.550633,0.216023 2.387975,0.216023 2.015822,0 3.566451,-0.339466 4.682911,-1.018397 1.11646,-0.678932 1.92279,-1.481306 2.45,-2.407122 0.52722,-0.925816 0.83734,-1.882493 0.96139,-2.839169 0.12405,-0.956677 0.18608,-1.72819 0.18608,-2.28368 v -3.795845 c -0.43418,0.401187 -0.96139,0.678931 -1.61266,0.894955 z"
           id="path4494"
           style="fill:#11002b;fill-opacity:1" />
        <path
           d="m 143.21646,42.921068 v 6.820178 h -7.50507 v 18.362018 c 0,1.72819 0.27912,2.87003 0.86836,3.425519 0.58924,0.58635 1.73671,0.864095 3.47341,0.864095 0.58924,0 1.11646,-0.03086 1.64367,-0.06172 0.52722,-0.06172 1.02342,-0.123442 1.51963,-0.216024 v 7.900297 c -0.86836,0.154303 -1.82975,0.246885 -2.88418,0.277745 -1.05443,0.03086 -2.07785,0.06172 -3.10127,0.06172 -1.58164,0 -3.10126,-0.123442 -4.49683,-0.308605 -1.42659,-0.216024 -2.66709,-0.617211 -3.75253,-1.265282 -1.08545,-0.617211 -1.92279,-1.512166 -2.54304,-2.654006 -0.62026,-1.14184 -0.93038,-2.654006 -0.93038,-4.505638 V 49.741246 h -6.20253 v -6.820178 h 6.20253 V 31.811276 h 10.23417 v 11.109792 z"
           id="path4496"
           style="fill:#11002b;fill-opacity:1" />
        <path
           d="m 157.85443,42.921068 v 6.881899 h 0.15506 c 0.46519,-1.141839 1.11646,-2.221958 1.9538,-3.178635 0.80633,-0.987537 1.76772,-1.820771 2.82215,-2.499703 1.05443,-0.678932 2.17089,-1.234421 3.38038,-1.604748 1.2095,-0.370326 2.45,-0.58635 3.75253,-0.58635 0.68228,0 1.42659,0.123442 2.23292,0.370327 v 9.474183 c -0.49621,-0.09258 -1.05444,-0.185163 -1.73671,-0.246884 -0.68228,-0.06172 -1.33355,-0.123442 -1.9538,-0.123442 -1.86076,0 -3.47342,0.308606 -4.74494,0.925816 -1.30253,0.617211 -2.32595,1.481306 -3.13228,2.530564 -0.80633,1.080119 -1.36455,2.345401 -1.70569,3.764985 -0.34114,1.419585 -0.4962,2.993472 -0.4962,4.659941 V 79.98457 H 148.14747 V 42.921068 Z"
           id="path4498"
           style="fill:#11002b;fill-opacity:1" />
        <path
           d="m 176.43101,37.181009 v -8.394065 h 10.23418 v 8.394065 z m 10.23418,5.740059 V 79.98457 H 176.43101 V 42.921068 Z"
           id="path4500"
           style="fill:#11002b;fill-opacity:1" />
        <polygon
           id="polygon4502"
           points="190.8519,79.98457 204.24937,60.480712 191.99937,42.921068 203.66013,42.921068 210.2038,52.611276 216.68544,42.921068 228.00506,42.921068 215.75506,60.264688 229.52468,79.98457 217.86392,79.98457 210.07975,68.288427 202.29557,79.98457 "
           style="fill:#11002b;fill-opacity:1" />
        <polygon
           id="polygon4504"
           points="234.85886,103.93828 234.85886,101.56202 242.02278,101.56202 242.02278,2.3762611 234.85886,2.3762611 234.85886,0 244.78291,0 244.78291,103.93828 "
           style="fill:#11002b;fill-opacity:1" />
        <g
           id="Group"
           transform="translate(20.778481,14.973294)"
           style="fill:#11002b;fill-opacity:1">
          <path
             d="m 2.6670886,3.8884273 v 1.327003 h 0.031013 C 3.0702532,4.6908012 3.5044304,4.3204748 4.0006329,4.04273 4.4968354,3.7649852 5.0860759,3.6106825 5.7373418,3.6106825 c 0.6202531,0 1.2094936,0.1234421 1.7367088,0.3703264 C 8.0012658,4.2278932 8.3734177,4.6599406 8.6525317,5.2771513 8.9626582,4.8451039 9.3348101,4.4747775 9.8620253,4.1353116 10.358228,3.7958457 10.978481,3.641543 11.660759,3.641543 c 0.527216,0 1.023418,0.061721 1.457595,0.1851632 0.434178,0.1234422 0.837342,0.3394659 1.147469,0.6172107 0.310126,0.2777448 0.558228,0.6480712 0.744304,1.1109792 0.186076,0.462908 0.279114,0.9875371 0.279114,1.6356083 V 13.825519 H 12.560127 V 8.1780415 c 0,-0.3394658 0,-0.6480712 -0.03101,-0.925816 C 12.498101,6.9436202 12.436076,6.6967359 12.312025,6.4807122 12.187975,6.2646884 12.032911,6.0795252 11.815823,5.9560831 11.598734,5.8326409 11.288608,5.7709199 10.916456,5.7709199 c -0.372152,0 -0.682279,0.061721 -0.93038,0.2160237 C 9.7379747,6.1412463 9.5518987,6.3264095 9.4278481,6.5732938 9.3037975,6.820178 9.2107595,7.0670623 9.1487342,7.3756677 9.1177215,7.684273 9.0867089,7.9928783 9.0867089,8.2706232 V 13.794659 H 6.3575949 V 8.2397626 c 0,-0.3086053 0,-0.5863501 -0.031013,-0.8640949 0,-0.2777449 -0.062025,-0.5554897 -0.1550633,-0.8023739 C 6.078481,6.3264095 5.9234177,6.1412463 5.6753165,5.9869436 5.4582278,5.8326409 5.1170886,5.7709199 4.6829114,5.7709199 c -0.1240506,0 -0.3101266,0.030861 -0.4962025,0.092582 C 3.9696203,5.9252225 3.7835443,6.0178041 3.5664557,6.2029674 3.3803798,6.35727 3.1943038,6.6041543 3.0702532,6.8818991 2.9151899,7.1905044 2.8531646,7.5608309 2.8531646,8.0545994 V 13.794659 H 0.12405063 V 3.8884273 Z"
             id="path4506"
             style="fill:#11002b;fill-opacity:1" />
          <path
             d="M 17.336076,6.9436202 C 17.367089,6.295549 17.522152,5.7709199 17.832278,5.3697329 18.111392,4.9376855 18.483544,4.5982196 18.917721,4.3513353 19.351899,4.104451 19.848101,3.9192878 20.375316,3.7958457 20.933544,3.6724036 21.46076,3.641543 22.018987,3.641543 c 0.496203,0 0.992405,0.030861 1.519621,0.092582 0.527215,0.061721 0.992405,0.2160238 1.395569,0.401187 0.434177,0.2160237 0.775317,0.4937685 1.054431,0.8640949 0.279113,0.3703264 0.403164,0.8332344 0.403164,1.4504451 v 5.153709 c 0,0.432047 0.03101,0.864095 0.06203,1.296142 0.06203,0.401187 0.155064,0.709793 0.279114,0.925816 H 23.97279 c -0.06203,-0.154302 -0.09304,-0.308605 -0.124051,-0.462908 -0.03101,-0.154302 -0.06203,-0.308605 -0.06203,-0.493768 -0.434177,0.432047 -0.961393,0.771513 -1.550633,0.925816 -0.589241,0.185163 -1.178481,0.277745 -1.798734,0.277745 -0.46519,0 -0.93038,-0.06172 -1.333545,-0.185164 -0.403164,-0.123442 -0.775316,-0.308605 -1.085443,-0.524629 -0.310126,-0.246884 -0.558227,-0.555489 -0.713291,-0.925816 -0.186076,-0.370326 -0.248101,-0.802374 -0.248101,-1.327003 0,-0.555489 0.09304,-1.018397 0.310127,-1.3887233 0.186076,-0.3703265 0.465189,-0.6480713 0.775316,-0.864095 C 18.452532,8.64095 18.824683,8.4866473 19.227848,8.3632052 19.631013,8.239763 20.034177,8.1780419 20.437342,8.1163209 20.840506,8.0545999 21.243671,7.9928787 21.646835,7.9620182 22.05,7.9311572 22.391139,7.8694362 22.701266,7.776855 23.011392,7.715134 23.259494,7.5916918 23.44557,7.4373891 c 0.186076,-0.1543027 0.248101,-0.3703264 0.248101,-0.6480712 0,-0.3086053 -0.06202,-0.5246291 -0.155063,-0.7097923 C 23.44557,5.894362 23.321519,5.7709199 23.166456,5.6783383 23.011392,5.5857567 22.825316,5.5240356 22.608228,5.4931751 22.391139,5.4623145 22.174051,5.431454 21.925949,5.431454 c -0.527215,0 -0.961392,0.1234421 -1.271519,0.3394659 -0.310126,0.2160237 -0.496202,0.6172107 -0.527215,1.1418397 h -2.791139 z m 6.29557,2.0059347 c -0.124051,0.092582 -0.248102,0.1851632 -0.434178,0.2468843 -0.186076,0.061721 -0.372152,0.092582 -0.558228,0.1543026 -0.186075,0.030861 -0.403164,0.061721 -0.620253,0.092582 -0.217088,0.030861 -0.434177,0.061721 -0.651266,0.092582 -0.217088,0.030861 -0.403164,0.092582 -0.620253,0.1543027 -0.186076,0.061721 -0.372152,0.1543027 -0.527215,0.2468843 -0.155063,0.1234422 -0.279114,0.2468842 -0.341139,0.4011872 -0.09304,0.154303 -0.124051,0.370326 -0.124051,0.617211 0,0.246884 0.03101,0.432047 0.124051,0.61721 0.09304,0.154303 0.217088,0.308606 0.372152,0.401187 0.155063,0.09258 0.341139,0.154303 0.527215,0.216024 0.217089,0.03086 0.403165,0.06172 0.620253,0.06172 0.527215,0 0.961393,-0.09258 1.240506,-0.277745 0.310127,-0.185163 0.527216,-0.401187 0.651266,-0.648071 0.155064,-0.246884 0.217089,-0.493768 0.248102,-0.771513 0.03101,-0.246885 0.06202,-0.462908 0.06202,-0.6172112 V 8.9495549 Z"
             id="path4508"
             style="fill:#11002b;fill-opacity:1" />
          <path
             d="m 35.540506,12.529377 c -0.310126,0.524629 -0.744304,0.925816 -1.271519,1.1727 -0.527215,0.246884 -1.116455,0.339466 -1.767721,0.339466 -0.744304,0 -1.39557,-0.154303 -1.953798,-0.432047 -0.558228,-0.277745 -1.023417,-0.678932 -1.395569,-1.172701 -0.372152,-0.493768 -0.651266,-1.049258 -0.837342,-1.697329 -0.186076,-0.648071 -0.279114,-1.2961426 -0.279114,-2.0059348 0,-0.6480713 0.09304,-1.2961425 0.279114,-1.9133532 0.186076,-0.6172106 0.46519,-1.1727003 0.837342,-1.6356083 0.372152,-0.462908 0.837341,-0.8640949 1.364557,-1.1418397 0.558227,-0.2777448 1.178481,-0.4320475 1.922784,-0.4320475 0.589241,0 1.147469,0.1234421 1.674684,0.3703264 0.527215,0.2468843 0.961392,0.6172107 1.271519,1.1109792 h 0.03101 V 0.12344214 H 38.14557 V 13.794659 H 35.540506 Z M 35.447468,7.6225519 C 35.385443,7.2522255 35.23038,6.9127596 35.044304,6.6350148 34.858228,6.35727 34.610127,6.1103858 34.331013,5.9252225 34.020886,5.7400593 33.648734,5.6474777 33.214557,5.6474777 c -0.434177,0 -0.837342,0.092582 -1.147468,0.2777448 -0.310127,0.1851633 -0.558228,0.401187 -0.744304,0.7097923 -0.186076,0.3086054 -0.310127,0.6172107 -0.403165,1.0183977 -0.09304,0.3703264 -0.12405,0.7715133 -0.12405,1.1727003 0,0.3703264 0.03101,0.7715133 0.12405,1.1418397 0.09304,0.3703265 0.248101,0.7097925 0.434177,1.0183975 0.186076,0.308606 0.434178,0.55549 0.744304,0.740653 0.310127,0.185163 0.651266,0.277745 1.085443,0.277745 0.434178,0 0.837342,-0.09258 1.116456,-0.277745 0.310127,-0.185163 0.527215,-0.432047 0.713291,-0.709792 0.186076,-0.308606 0.310127,-0.648072 0.372152,-1.0183979 0.06202,-0.3703265 0.124051,-0.7715134 0.124051,-1.1727003 0.03101,-0.4320475 0,-0.8332345 -0.06203,-1.2035609 z"
             id="path4510"
             style="fill:#11002b;fill-opacity:1" />
          <path
             d="m 43.16962,11.418398 c 0.403165,0.401187 0.992405,0.58635 1.767722,0.58635 0.558228,0 1.023418,-0.123442 1.426582,-0.401187 0.403165,-0.277745 0.651266,-0.55549 0.744304,-0.864095 h 2.418987 c -0.372152,1.1727 -0.961392,2.036795 -1.767721,2.561424 -0.806329,0.524629 -1.767722,0.771514 -2.884178,0.771514 -0.775316,0 -1.488607,-0.123443 -2.10886,-0.370327 -0.620254,-0.246884 -1.147469,-0.61721 -1.581646,-1.049258 -0.434177,-0.462908 -0.775316,-1.018398 -1.023418,-1.635608 -0.248101,-0.648072 -0.341139,-1.3270033 -0.341139,-2.0985166 0,-0.7406529 0.124051,-1.4195846 0.372152,-2.0676558 0.248101,-0.6480712 0.589241,-1.2035609 1.05443,-1.6664689 0.434178,-0.462908 0.992405,-0.8332344 1.612659,-1.1109792 0.620253,-0.2777448 1.302531,-0.4011869 2.077848,-0.4011869 0.837342,0 1.581645,0.1543026 2.201898,0.4937685 0.620254,0.3394659 1.147469,0.7715134 1.550633,1.327003 0.403165,0.5554896 0.682279,1.1727003 0.868355,1.8824926 0.186076,0.7097922 0.248101,1.4504451 0.186076,2.1910979 h -7.256962 c 0.06202,0.8023734 0.279114,1.4504454 0.682278,1.8516324 z M 46.270886,6.2029674 C 45.929747,5.8326409 45.433544,5.6783383 44.782278,5.6783383 c -0.434177,0 -0.806329,0.061721 -1.085443,0.2160237 -0.279114,0.1543027 -0.527215,0.3394659 -0.682278,0.5554896 -0.186076,0.2160238 -0.310127,0.4320475 -0.372152,0.6789318 -0.06202,0.2468843 -0.124051,0.462908 -0.124051,0.6480712 h 4.434811 C 46.829114,7.0670623 46.581013,6.5732938 46.270886,6.2029674 Z"
             id="path4512"
             style="fill:#11002b;fill-opacity:1" />
          <path
             d="M 55.605696,5.7091988 V 3.8884273 h 1.643671 V 3.1169139 c 0,-0.8949554 0.279114,-1.6047477 0.837342,-2.16023734 0.558228,-0.55548962 1.395569,-0.83323442 2.512025,-0.83323442 0.248101,0 0.496203,0 0.744304,0.0308605 0.248101,0.0308605 0.496203,0.0308605 0.713291,0.0617211 V 2.252819 C 61.746203,2.221958 61.405063,2.191098 61.063924,2.191098 c -0.372152,0 -0.651266,0.092582 -0.806329,0.2468843 -0.155063,0.1851632 -0.248101,0.462908 -0.248101,0.864095 v 0.5863501 h 1.891772 V 5.7091988 H 60.009494 V 13.794659 H 57.28038 V 5.7091988 Z"
             id="path4514"
             style="fill:#11002b;fill-opacity:1" />
          <path
             d="M 63.110759,6.6967359 C 63.358861,6.0486647 63.7,5.4931751 64.16519,5.0611276 64.599367,4.5982196 65.157595,4.2587537 65.777848,4.0118694 66.398101,3.7649852 67.111392,3.641543 67.886709,3.641543 c 0.775316,0 1.488607,0.1234422 2.139873,0.3703264 0.620253,0.2468843 1.178481,0.5863502 1.612658,1.0492582 0.434178,0.462908 0.80633,0.9875371 1.054431,1.6356083 0.248101,0.6480712 0.372152,1.3578635 0.372152,2.1602374 0,0.8023739 -0.124051,1.5121657 -0.372152,2.1293767 -0.248101,0.648071 -0.589241,1.1727 -1.054431,1.635609 -0.434177,0.462908 -0.992405,0.802373 -1.612658,1.049258 -0.620253,0.246884 -1.333544,0.370326 -2.139873,0.370326 -0.775317,0 -1.488608,-0.123442 -2.108861,-0.370326 -0.620253,-0.246885 -1.178481,-0.58635 -1.612658,-1.049258 -0.434177,-0.462909 -0.806329,-0.987538 -1.054431,-1.635609 -0.248101,-0.648071 -0.372151,-1.3578634 -0.372151,-2.1293767 0,-0.8023739 0.12405,-1.5121662 0.372151,-2.1602374 z m 2.481013,3.3020772 c 0.06202,0.3703259 0.217089,0.7097919 0.403165,1.0183979 0.186076,0.308605 0.434177,0.524629 0.744303,0.709792 0.310127,0.185163 0.682279,0.277745 1.147469,0.277745 0.46519,0 0.837342,-0.09258 1.178481,-0.277745 0.310126,-0.185163 0.558228,-0.432047 0.744304,-0.709792 0.186076,-0.308606 0.310126,-0.648072 0.403164,-1.0183979 0.06202,-0.3703265 0.124051,-0.7715134 0.124051,-1.1727003 0,-0.401187 -0.03101,-0.7715134 -0.124051,-1.1727003 C 70.150633,7.283086 69.99557,6.9436202 69.809494,6.6350148 69.623418,6.3264095 69.375316,6.1103858 69.06519,5.9252225 68.755063,5.7400593 68.351899,5.6474777 67.886709,5.6474777 c -0.46519,0 -0.837342,0.092582 -1.147469,0.2777448 -0.310126,0.1851633 -0.558227,0.4320475 -0.744303,0.7097923 -0.186076,0.3086054 -0.310127,0.6172107 -0.403165,1.0183977 -0.06203,0.3703264 -0.124051,0.7715133 -0.124051,1.1727003 0,0.4011869 0.03101,0.8023738 0.124051,1.1727003 z"
             id="path4516"
             style="fill:#11002b;fill-opacity:1" />
          <path
             d="m 77.407595,3.8884273 v 1.851632 h 0.03101 c 0.12405,-0.3086053 0.310126,-0.5863501 0.527215,-0.8640949 0.217088,-0.2468843 0.46519,-0.4937686 0.744304,-0.6789318 0.279113,-0.1851632 0.58924,-0.3394658 0.899367,-0.4320474 0.310126,-0.092582 0.651266,-0.1543027 0.992405,-0.1543027 0.186076,0 0.372152,0.030861 0.58924,0.092582 v 2.5305638 c -0.12405,-0.03086 -0.279114,-0.061721 -0.46519,-0.061721 -0.186076,-0.030861 -0.341139,-0.030861 -0.527215,-0.030861 -0.496202,0 -0.93038,0.092582 -1.271519,0.2468843 C 78.586073,6.5424332 78.306959,6.7893175 78.08987,7.0670623 77.872782,7.3448071 77.717718,7.684273 77.624681,8.0854599 77.531641,8.4557864 77.50063,8.8878338 77.50063,9.3198813 V 13.794659 H 74.771519 V 3.8884273 Z"
             id="path4518"
             style="fill:#11002b;fill-opacity:1" />
        </g>
      </g>
    </g>
  </g>
</svg>
